REM DIRINDEX 1\2,1\3,1\4,1\5,1\6
REM DIRNAME "folder01","folder02","folder03","folder04","folder05","folder06"
TITLE ""
FILE "Disc2Track62.mp3" MP3
  TRACK 01 AUDIO
    TITLE "3:cjc161_03875"
    INDEX 01 00:00:00
  TRACK 02 AUDIO
    TITLE "4:cjc161_03876"
    INDEX 01 00:00:73
  TRACK 03 AUDIO
    TITLE "5:cjc161_03877"
    INDEX 01 00:02:56
  TRACK 04 AUDIO
    TITLE "6:cjc161_03878"
    INDEX 01 00:03:65
  TRACK 05 AUDIO
    TITLE "0:"
    INDEX 01 00:07:12
  TRACK 06 AUDIO
    TITLE "3:cjc161_03879"
    INDEX 01 00:07:46
  TRACK 07 AUDIO
    TITLE "4:cjc161_03880"
    INDEX 01 00:08:67
  TRACK 08 AUDIO
    TITLE "5:cjc161_03881"
    INDEX 01 00:10:07
  TRACK 09 AUDIO
    TITLE "0:"
    INDEX 01 00:11:32
  TRACK 10 AUDIO
    TITLE "3:cjc161_03882"
    INDEX 01 00:11:67
  TRACK 11 AUDIO
    TITLE "4:cjc161_03883"
    INDEX 01 00:13:15
  TRACK 12 AUDIO
    TITLE "5:cjc161_03884"
    INDEX 01 00:14:34
  TRACK 13 AUDIO
    TITLE "6:cjc161_03885"
    INDEX 01 00:15:55
  TRACK 14 AUDIO
    TITLE "0:"
    INDEX 01 00:21:65
  TRACK 15 AUDIO
    TITLE "3:cjc161_03886"
    INDEX 01 00:22:22
  TRACK 16 AUDIO
    TITLE "4:cjc161_03887"
    INDEX 01 00:23:29
  TRACK 17 AUDIO
    TITLE "5:cjc161_03888"
    INDEX 01 00:24:36
  TRACK 18 AUDIO
    TITLE "6:cjc161_03889"
    INDEX 01 00:25:46
  TRACK 19 AUDIO
    TITLE "0:"
    INDEX 01 00:29:65
  TRACK 20 AUDIO
    TITLE "3:cjc161_03890"
    INDEX 01 00:30:19
  TRACK 21 AUDIO
    TITLE "4:cjc161_03891"
    INDEX 01 00:31:60
  TRACK 22 AUDIO
    TITLE "5:cjc161_03892"
    INDEX 01 00:32:59
  TRACK 23 AUDIO
    TITLE "6:cjc161_03893"
    INDEX 01 00:34:21
  TRACK 24 AUDIO
    TITLE "0:"
    INDEX 01 00:39:14
  TRACK 25 AUDIO
    TITLE "3:cjc161_03894"
    INDEX 01 00:39:46
  TRACK 26 AUDIO
    TITLE "4:cjc161_03895"
    INDEX 01 00:41:03
  TRACK 27 AUDIO
    TITLE "5:cjc161_03896"
    INDEX 01 00:42:15
  TRACK 28 AUDIO
    TITLE "6:cjc161_03897"
    INDEX 01 00:43:43
  TRACK 29 AUDIO
    TITLE "0:"
    INDEX 01 00:48:39
  TRACK 30 AUDIO
    TITLE "3:cjc161_03898"
    INDEX 01 00:48:72
  TRACK 31 AUDIO
    TITLE "4:cjc161_03899"
    INDEX 01 00:50:32
  TRACK 32 AUDIO
    TITLE "5:cjc161_03900"
    INDEX 01 00:51:63
  TRACK 33 AUDIO
    TITLE "6:cjc161_03901"
    INDEX 01 00:53:20
  TRACK 34 AUDIO
    TITLE "0:"
    INDEX 01 00:55:52
  TRACK 35 AUDIO
    TITLE "3:cjc161_03902"
    INDEX 01 00:56:09
  TRACK 36 AUDIO
    TITLE "4:cjc161_03903"
    INDEX 01 00:57:24
  TRACK 37 AUDIO
    TITLE "5:cjc161_03904"
    INDEX 01 00:59:48
  TRACK 38 AUDIO
    TITLE "6:cjc161_03905"
    INDEX 01 01:00:63
  TRACK 39 AUDIO
    TITLE "0:"
    INDEX 01 01:04:32
  TRACK 40 AUDIO
    TITLE "3:cjc161_03906"
    INDEX 01 01:04:61
  TRACK 41 AUDIO
    TITLE "4:cjc161_03907"
    INDEX 01 01:06:09
  TRACK 42 AUDIO
    TITLE "5:cjc161_03908"
    INDEX 01 01:07:64
  TRACK 43 AUDIO
    TITLE "6:cjc161_03909"
    INDEX 01 01:09:06
  TRACK 44 AUDIO
    TITLE "0:"
    INDEX 01 01:11:06
  TRACK 45 AUDIO
    TITLE "3:cjc161_03910"
    INDEX 01 01:11:38
  TRACK 46 AUDIO
    TITLE "4:cjc161_03911"
    INDEX 01 01:12:61
  TRACK 47 AUDIO
    TITLE "5:cjc161_03912"
    INDEX 01 01:14:15
  TRACK 48 AUDIO
    TITLE "6:cjc161_03913"
    INDEX 01 01:15:34
  TRACK 49 AUDIO
    TITLE "0:"
    INDEX 01 01:17:29
  TRACK 50 AUDIO
    TITLE "3:cjc161_03914"
    INDEX 01 01:17:64
  TRACK 51 AUDIO
    TITLE "4:cjc161_03915"
    INDEX 01 01:19:27
  TRACK 52 AUDIO
    TITLE "5:cjc161_03916"
    INDEX 01 01:20:33
  TRACK 53 AUDIO
    TITLE "6:cjc161_03917"
    INDEX 01 01:21:70
  TRACK 54 AUDIO
    TITLE "0:"
    INDEX 01 01:26:69
  TRACK 55 AUDIO
    TITLE "3:cjc161_03918"
    INDEX 01 01:27:25
  TRACK 56 AUDIO
    TITLE "4:cjc161_03919"
    INDEX 01 01:28:56
  TRACK 57 AUDIO
    TITLE "5:cjc161_03920"
    INDEX 01 01:30:06
  TRACK 58 AUDIO
    TITLE "0:"
    INDEX 01 01:31:39
  TRACK 59 AUDIO
    TITLE "3:cjc161_03921"
    INDEX 01 01:31:72
  TRACK 60 AUDIO
    TITLE "4:cjc161_03922"
    INDEX 01 01:33:26
  TRACK 61 AUDIO
    TITLE "5:cjc161_03923"
    INDEX 01 01:34:56
  TRACK 62 AUDIO
    TITLE "6:cjc161_03924"
    INDEX 01 01:36:10
  TRACK 63 AUDIO
    TITLE "0:"
    INDEX 01 01:40:53
  TRACK 64 AUDIO
    TITLE "3:cjc161_03925"
    INDEX 01 01:41:10
  TRACK 65 AUDIO
    TITLE "4:cjc161_03926"
    INDEX 01 01:42:42
  TRACK 66 AUDIO
    TITLE "5:cjc161_03927"
    INDEX 01 01:43:46
  TRACK 67 AUDIO
    TITLE "0:"
    INDEX 01 01:45:03
  TRACK 68 AUDIO
    TITLE "3:cjc161_03928"
    INDEX 01 01:45:37
  TRACK 69 AUDIO
    TITLE "4:cjc161_03929"
    INDEX 01 01:46:64
  TRACK 70 AUDIO
    TITLE "5:cjc161_03930"
    INDEX 01 01:48:08
  TRACK 71 AUDIO
    TITLE "0:"
    INDEX 01 01:49:36
  TRACK 72 AUDIO
    TITLE "3:cjc161_03931"
    INDEX 01 01:50:01
  TRACK 73 AUDIO
    TITLE "4:cjc161_03932"
    INDEX 01 01:51:22
  TRACK 74 AUDIO
    TITLE "5:cjc161_03933"
    INDEX 01 01:53:09
  TRACK 75 AUDIO
    TITLE "6:cjc161_03934"
    INDEX 01 01:54:28
  TRACK 76 AUDIO
    TITLE "0:"
    INDEX 01 02:00:21
  TRACK 77 AUDIO
    TITLE "3:cjc161_03935"
    INDEX 01 02:00:52
  TRACK 78 AUDIO
    TITLE "4:cjc161_03936"
    INDEX 01 02:02:02
  TRACK 79 AUDIO
    TITLE "5:cjc161_03937"
    INDEX 01 02:03:11
  TRACK 80 AUDIO
    TITLE "6:cjc161_03938"
    INDEX 01 02:04:34
  TRACK 81 AUDIO
    TITLE "0:"
    INDEX 01 02:06:45
